<?xml version="1.0" encoding="iso-8859-1"?>
<!-- Uploaded to: SVG Repo, www.svgrepo.com, Generator: SVG Repo Mixer Tools -->
<svg version="1.1" id="Layer_1" xmlns="http://www.w3.org/2000/svg" xmlns:xlink="http://www.w3.org/1999/xlink" 
	 viewBox="0 0 511.989 511.989" xml:space="preserve">
<rect x="21.002" y="8.953" style="fill:#965353;" width="473.04" height="300.38"/>
<rect x="10.659" y="341.333" style="fill:#434A54;" width="490.67" height="170.65"/>
<g>
	<rect x="138.652" y="448.053" style="fill:#CCD1D9;" width="21.343" height="63.936"/>
	<rect x="351.982" y="448.053" style="fill:#CCD1D9;" width="21.342" height="63.936"/>
</g>
<path style="fill:#37BC9B;" d="M106.657,42.663H85.328c-5.89,0-10.671,4.781-10.671,10.672s4.781,10.664,10.671,10.664v15.108
	h21.328V63.999c5.891,0,10.672-4.773,10.672-10.664S112.548,42.663,106.657,42.663z"/>
<polygon style="fill:#48CFAD;" points="138.655,163.176 53.329,163.176 53.329,106.662 81.783,63.999 110.219,63.999 
	138.655,106.662 "/>
<path style="fill:#967ADC;" d="M426.641,42.663h-21.312c-5.906,0-10.688,4.781-10.688,10.672s4.781,10.664,10.688,10.664v15.108
	h21.312V63.999c5.904,0,10.686-4.773,10.686-10.664S432.546,42.663,426.641,42.663z"/>
<path style="fill:#AC92EB;" d="M458.046,127.997c0-10.57-3.781-20.233-10.062-27.679V85.334l-21.342-21.335h-21.312l-21.344,21.335
	v14.984c-6.281,7.445-10.062,17.108-10.062,27.679s3.781,20.233,10.062,27.687h63.998
	C454.263,148.23,458.046,138.567,458.046,127.997z"/>
<path style="fill:#F6BB42;" d="M266.652,42.663h-21.328c-5.891,0-10.672,4.781-10.672,10.672s4.781,10.664,10.672,10.664v15.108
	h21.328V63.999c5.898,0,10.68-4.773,10.68-10.664S272.551,42.663,266.652,42.663z"/>
<path style="fill:#E9573F;" d="M213.325,191.995h-21.328c-5.89,0-10.671,4.773-10.671,10.664s4.781,10.672,10.671,10.672v15.108
	h21.328v-15.108c5.891,0,10.672-4.781,10.672-10.672S219.216,191.995,213.325,191.995z"/>
<g>
	<rect x="160.002" y="213.333" style="fill:#FC6E51;" width="85.33" height="106.66"/>
	<rect x="266.652" y="255.993" style="fill:#FC6E51;" width="63.99" height="63.999"/>
</g>
<path style="fill:#FFCE54;" d="M293.799,154.949c9.594-9.64,15.531-22.937,15.531-37.616c0-29.46-23.875-53.334-53.334-53.334
	c-29.452,0-53.342,23.874-53.342,53.334c0,14.68,5.938,27.977,15.531,37.616H293.799z"/>
<path style="fill:#A85D5D;" d="M10.659,0v341.335h490.667V0H10.659z M479.982,21.336v127.996H32.002V21.336H479.982z
	 M32.002,341.335V170.66h447.98v170.675H32.002z"/>
<rect x="10.659" y="298.643" style="fill:#656D78;" width="490.67" height="42.687"/>
<g>
	<path style="fill:#434A54;" d="M447.982,309.336c5.906,0,10.656-4.781,10.656-10.688h-21.312
		C437.327,304.555,442.107,309.336,447.982,309.336z"/>
	<path style="fill:#434A54;" d="M490.638,309.336c5.906,0,10.688-4.781,10.688-10.688h-21.344
		C479.982,304.555,484.763,309.336,490.638,309.336z"/>
	<path style="fill:#434A54;" d="M405.328,309.336c5.875,0,10.656-4.781,10.656-10.688h-21.344
		C394.641,304.555,399.422,309.336,405.328,309.336z"/>
	<path style="fill:#434A54;" d="M362.641,309.336c5.906,0,10.688-4.781,10.688-10.688h-21.342
		C351.986,304.555,356.766,309.336,362.641,309.336z"/>
	<path style="fill:#434A54;" d="M319.986,309.336c5.906,0,10.656-4.781,10.656-10.688H309.33
		C309.331,304.555,314.111,309.336,319.986,309.336z"/>
	<path style="fill:#434A54;" d="M277.332,309.336c5.875,0,10.654-4.781,10.654-10.688h-21.334
		C266.652,304.555,271.434,309.336,277.332,309.336z"/>
	<path style="fill:#434A54;" d="M234.653,309.336c5.891,0,10.672-4.781,10.672-10.688h-21.328
		C223.997,304.555,228.762,309.336,234.653,309.336z"/>
	<path style="fill:#434A54;" d="M191.997,309.336c5.891,0,10.656-4.781,10.656-10.688h-21.328
		C181.326,304.555,186.107,309.336,191.997,309.336z"/>
	<path style="fill:#434A54;" d="M149.327,309.336c5.891,0,10.671-4.781,10.671-10.688h-21.343
		C138.655,304.555,143.436,309.336,149.327,309.336z"/>
	<path style="fill:#434A54;" d="M106.657,309.336c5.891,0,10.672-4.781,10.672-10.688H96.001
		C96.001,304.555,100.766,309.336,106.657,309.336z"/>
	<path style="fill:#434A54;" d="M64.002,309.336c5.891,0,10.656-4.781,10.656-10.688H53.329
		C53.329,304.555,58.111,309.336,64.002,309.336z"/>
	<path style="fill:#434A54;" d="M21.33,309.336c5.891,0,10.671-4.781,10.671-10.688H10.659
		C10.659,304.555,15.44,309.336,21.33,309.336z"/>
</g>
<g>
	<rect x="74.662" y="383.993" style="fill:#ED5564;" width="149.34" height="64.06"/>
	<rect x="287.982" y="383.993" style="fill:#ED5564;" width="149.34" height="64.06"/>
</g>
<g>
	<rect x="74.662" y="383.993" style="opacity:0.1;fill:#FFFFFF;enable-background:new    ;" width="149.34" height="21.344"/>
	<rect x="287.982" y="383.993" style="opacity:0.1;fill:#FFFFFF;enable-background:new    ;" width="149.34" height="21.344"/>
</g>
</svg>